<?xml version="1.0" encoding="UTF-8" standalone="no"?>
<!-- Created with Inkscape (http://www.inkscape.org/) -->

<svg
   xmlns:dc="http://purl.org/dc/elements/1.1/"
   xmlns:cc="http://creativecommons.org/ns#"
   xmlns:rdf="http://www.w3.org/1999/02/22-rdf-syntax-ns#"
   xmlns:svg="http://www.w3.org/2000/svg"
   xmlns="http://www.w3.org/2000/svg"
   xmlns:sodipodi="http://sodipodi.sourceforge.net/DTD/sodipodi-0.dtd"
   xmlns:inkscape="http://www.inkscape.org/namespaces/inkscape"
   width="15.90596"
   height="19.00001"
   id="svg3493"
   version="1.1"
   inkscape:version="0.48.4 r9939"
   sodipodi:docname="New document 16">
  <defs
     id="defs3495" />
  <sodipodi:namedview
     id="base"
     pagecolor="#ffffff"
     bordercolor="#666666"
     borderopacity="1.0"
     inkscape:pageopacity="0.0"
     inkscape:pageshadow="2"
     inkscape:zoom="5.6"
     inkscape:cx="10.041679"
     inkscape:cy="-7.9540206"
     inkscape:document-units="px"
     inkscape:current-layer="layer1"
     showgrid="false"
     fit-margin-top="0"
     fit-margin-left="0"
     fit-margin-right="0"
     fit-margin-bottom="0"
     inkscape:window-width="464"
     inkscape:window-height="420"
     inkscape:window-x="0"
     inkscape:window-y="24"
     inkscape:window-maximized="0" />
  <metadata
     id="metadata3498">
    <rdf:RDF>
      <cc:Work
         rdf:about="">
        <dc:format>image/svg+xml</dc:format>
        <dc:type
           rdf:resource="http://purl.org/dc/dcmitype/StillImage" />
        <dc:title></dc:title>
      </cc:Work>
    </rdf:RDF>
  </metadata>
  <g
     inkscape:label="Layer 1"
     inkscape:groupmode="layer"
     id="layer1"
     transform="translate(-572.04702,-362.86218)">
    <path
       style="fill:#ffffff"
       id="path3866"
       d="m 576.57717,367.24765 c 0.5566,0 1.22812,0.11498 2.01473,0.34494 0.79388,0.23017 1.32072,0.3451 1.58049,0.3451 0.33386,0 0.87938,-0.12981 1.63622,-0.38958 0.75685,-0.25961 1.41365,-0.38959 1.97008,-0.38959 0.91278,0 1.72535,0.2449 2.43771,0.73469 0.40067,0.28193 0.79769,0.66408 1.19091,1.14643 -0.59363,0.50467 -1.0277,0.95362 -1.3022,1.34685 -0.49723,0.71236 -0.74576,1.49896 -0.74576,2.35966 0,0.94237 0.26341,1.79199 0.79025,2.549 0.52683,0.75683 1.12791,1.23539 1.80338,1.4358 -0.28225,0.91278 -0.74972,1.86703 -1.40272,2.86117 -0.98686,1.49122 -1.96644,2.23682 -2.93842,2.23682 -0.38594,0 -0.92021,-0.12181 -1.60282,-0.36726 -0.67532,-0.24537 -1.24663,-0.36726 -1.7141,-0.36726 -0.46763,0 -1.01298,0.12664 -1.63622,0.37834 -0.61596,0.25962 -1.11683,0.38943 -1.50277,0.38943 -1.16495,0 -2.30774,-0.98623 -3.42821,-2.96027 -1.12047,-1.95204 -1.6807,-3.86656 -1.6807,-5.74386 -10e-6,-1.74387 0.42667,-3.1648 1.28002,-4.2631 0.86071,-1.09831 1.94412,-1.64731 3.25012,-1.64731 m 7.01235,-4.38547 c 0.0296,0.0965 0.0483,0.18183 0.0557,0.25602 0.007,0.0741 0.0112,0.14847 0.0112,0.22262 0,0.47493 -0.11128,0.99429 -0.33387,1.55833 -0.22273,0.56388 -0.57511,1.08706 -1.05746,1.56942 -0.41555,0.40811 -0.82745,0.6826 -1.23556,0.82364 -0.25961,0.0816 -0.653,0.14464 -1.17983,0.18918 0.0148,-1.12791 0.3079,-2.10369 0.87937,-2.92734 0.57876,-0.82365 1.53222,-1.38761 2.86054,-1.69179"
       inkscape:connector-curvature="0"
       inkscape:export-filename="/home/filly/companysite/app/static/img/iossmall.png"
       inkscape:export-xdpi="90"
       inkscape:export-ydpi="90" />
  </g>
</svg>
