<?xml version="1.0" encoding="UTF-8" standalone="no"?>
<!-- Created with Inkscape (http://www.inkscape.org/) -->

<svg
   xmlns:dc="http://purl.org/dc/elements/1.1/"
   xmlns:cc="http://creativecommons.org/ns#"
   xmlns:rdf="http://www.w3.org/1999/02/22-rdf-syntax-ns#"
   xmlns:svg="http://www.w3.org/2000/svg"
   xmlns="http://www.w3.org/2000/svg"
   xmlns:xlink="http://www.w3.org/1999/xlink"
   xmlns:sodipodi="http://sodipodi.sourceforge.net/DTD/sodipodi-0.dtd"
   xmlns:inkscape="http://www.inkscape.org/namespaces/inkscape"
   version="1.1"
   width="21.714123"
   height="18.999723"
   id="svg2"
   inkscape:version="0.48.4 r9939"
   sodipodi:docname="android.svg">
  <sodipodi:namedview
     pagecolor="#ffffff"
     bordercolor="#666666"
     borderopacity="1"
     objecttolerance="10"
     gridtolerance="10"
     guidetolerance="10"
     inkscape:pageopacity="0"
     inkscape:pageshadow="2"
     inkscape:window-width="1920"
     inkscape:window-height="1030"
     id="namedview48"
     showgrid="false"
     inkscape:zoom="1.7920174"
     inkscape:cx="232.87634"
     inkscape:cy="70.329923"
     inkscape:window-x="0"
     inkscape:window-y="0"
     inkscape:window-maximized="1"
     inkscape:current-layer="svg2"
     fit-margin-top="0"
     fit-margin-left="0"
     fit-margin-right="0"
     fit-margin-bottom="0" />
  <defs
     id="defs4">
    <marker
       refX="0"
       refY="0"
       orient="auto"
       id="Arrow1Lstart"
       style="overflow:visible">
      <path
         d="M 0,0 5,-5 -12.5,0 5,5 0,0 z"
         transform="matrix(0.8,0,0,0.8,10,0)"
         id="path10118"
         style="fill-rule:evenodd;stroke:#000000;stroke-width:1pt;marker-start:none"
         inkscape:connector-curvature="0" />
    </marker>
    <radialGradient
       cx="276.14392"
       cy="-2665.9668"
       r="703.63379"
       fx="276.14392"
       fy="-2665.9668"
       id="radialGradient4134"
       xlink:href="#linearGradient4128"
       gradientUnits="userSpaceOnUse"
       gradientTransform="matrix(1,0,0,0.17045779,808.10425,-1175.0862)" />
    <linearGradient
       id="linearGradient4128">
      <stop
         id="stop4130"
         style="stop-color:#000000;stop-opacity:1"
         offset="0" />
      <stop
         id="stop4132"
         style="stop-color:#000000;stop-opacity:0"
         offset="1" />
    </linearGradient>
    <linearGradient
       id="linearGradient8105">
      <stop
         id="stop8107"
         style="stop-color:#a14dd3;stop-opacity:1"
         offset="0" />
      <stop
         id="stop8109"
         style="stop-color:#a14dd3;stop-opacity:0"
         offset="1" />
    </linearGradient>
    <radialGradient
       cx="276.14392"
       cy="-2665.9668"
       r="703.63379"
       fx="276.14392"
       fy="-2665.9668"
       id="radialGradient18343"
       xlink:href="#linearGradient4128"
       gradientUnits="userSpaceOnUse"
       gradientTransform="matrix(1,0,0,0.17045779,1912.5103,685.79563)" />
    <linearGradient
       x1="129.342"
       y1="259.30521"
       x2="195.5984"
       y2="259.30521"
       id="linearGradient31968"
       xlink:href="#SVGID_3_"
       gradientUnits="userSpaceOnUse"
       gradientTransform="matrix(1,0,0,-1,8.3999,368.2998)" />
    <linearGradient
       x1="129.2932"
       y1="259.311"
       x2="195.5535"
       y2="259.311"
       id="linearGradient31970"
       xlink:href="#SVGID_4_"
       gradientUnits="userSpaceOnUse"
       gradientTransform="matrix(1,0,0,-1,8.3999,368.2998)" />
    <linearGradient
       x1="129.24541"
       y1="259.31689"
       x2="195.50951"
       y2="259.31689"
       id="linearGradient31972"
       xlink:href="#SVGID_5_"
       gradientUnits="userSpaceOnUse"
       gradientTransform="matrix(1,0,0,-1,8.3999,368.2998)" />
    <linearGradient
       x1="129.1965"
       y1="259.32181"
       x2="195.4646"
       y2="259.32181"
       id="linearGradient31974"
       xlink:href="#SVGID_6_"
       gradientUnits="userSpaceOnUse"
       gradientTransform="matrix(1,0,0,-1,8.3999,368.2998)" />
    <linearGradient
       x1="129.14771"
       y1="259.32669"
       x2="195.4216"
       y2="259.32669"
       id="linearGradient31976"
       xlink:href="#SVGID_7_"
       gradientUnits="userSpaceOnUse"
       gradientTransform="matrix(1,0,0,-1,8.3999,368.2998)" />
    <linearGradient
       x1="129.09891"
       y1="259.33151"
       x2="195.37869"
       y2="259.33151"
       id="linearGradient31978"
       xlink:href="#SVGID_8_"
       gradientUnits="userSpaceOnUse"
       gradientTransform="matrix(1,0,0,-1,8.3999,368.2998)" />
    <linearGradient
       x1="129.05099"
       y1="259.3364"
       x2="195.3376"
       y2="259.3364"
       id="linearGradient31980"
       xlink:href="#SVGID_9_"
       gradientUnits="userSpaceOnUse"
       gradientTransform="matrix(1,0,0,-1,8.3999,368.2998)" />
    <linearGradient
       x1="129.0032"
       y1="259.3403"
       x2="195.2957"
       y2="259.3403"
       id="linearGradient31982"
       xlink:href="#SVGID_10_"
       gradientUnits="userSpaceOnUse"
       gradientTransform="matrix(1,0,0,-1,8.3999,368.2998)" />
    <linearGradient
       x1="128.9543"
       y1="259.34329"
       x2="195.25459"
       y2="259.34329"
       id="linearGradient31984"
       xlink:href="#SVGID_11_"
       gradientUnits="userSpaceOnUse"
       gradientTransform="matrix(1,0,0,-1,8.3999,368.2998)" />
    <linearGradient
       x1="128.90649"
       y1="259.34811"
       x2="195.21561"
       y2="259.34811"
       id="linearGradient31986"
       xlink:href="#SVGID_12_"
       gradientUnits="userSpaceOnUse"
       gradientTransform="matrix(1,0,0,-1,8.3999,368.2998)" />
    <linearGradient
       x1="128.8567"
       y1="259.3501"
       x2="195.17551"
       y2="259.3501"
       id="linearGradient31988"
       xlink:href="#SVGID_13_"
       gradientUnits="userSpaceOnUse"
       gradientTransform="matrix(1,0,0,-1,8.3999,368.2998)" />
    <linearGradient
       x1="128.80881"
       y1="259.354"
       x2="195.13651"
       y2="259.354"
       id="linearGradient31990"
       xlink:href="#SVGID_14_"
       gradientUnits="userSpaceOnUse"
       gradientTransform="matrix(1,0,0,-1,8.3999,368.2998)" />
    <linearGradient
       x1="128.75999"
       y1="259.35599"
       x2="195.0994"
       y2="259.35599"
       id="linearGradient31992"
       xlink:href="#SVGID_15_"
       gradientUnits="userSpaceOnUse"
       gradientTransform="matrix(1,0,0,-1,8.3999,368.2998)" />
    <linearGradient
       x1="128.7122"
       y1="259.35791"
       x2="195.0623"
       y2="259.35791"
       id="linearGradient31994"
       xlink:href="#SVGID_16_"
       gradientUnits="userSpaceOnUse"
       gradientTransform="matrix(1,0,0,-1,8.3999,368.2998)" />
    <linearGradient
       x1="128.6633"
       y1="259.35989"
       x2="195.0251"
       y2="259.35989"
       id="linearGradient31996"
       xlink:href="#SVGID_17_"
       gradientUnits="userSpaceOnUse"
       gradientTransform="matrix(1,0,0,-1,8.3999,368.2998)" />
    <linearGradient
       x1="128.61549"
       y1="259.36179"
       x2="194.989"
       y2="259.36179"
       id="linearGradient31998"
       xlink:href="#SVGID_18_"
       gradientUnits="userSpaceOnUse"
       gradientTransform="matrix(1,0,0,-1,8.3999,368.2998)" />
    <linearGradient
       x1="128.5667"
       y1="259.3638"
       x2="194.9539"
       y2="259.3638"
       id="linearGradient32000"
       xlink:href="#SVGID_19_"
       gradientUnits="userSpaceOnUse"
       gradientTransform="matrix(1,0,0,-1,8.3999,368.2998)" />
    <linearGradient
       x1="128.51781"
       y1="259.36569"
       x2="194.91769"
       y2="259.36569"
       id="linearGradient32002"
       xlink:href="#SVGID_20_"
       gradientUnits="userSpaceOnUse"
       gradientTransform="matrix(1,0,0,-1,8.3999,368.2998)" />
    <linearGradient
       x1="128.47"
       y1="259.3667"
       x2="194.8855"
       y2="259.3667"
       id="linearGradient32004"
       xlink:href="#SVGID_21_"
       gradientUnits="userSpaceOnUse"
       gradientTransform="matrix(1,0,0,-1,8.3999,368.2998)" />
    <linearGradient
       x1="128.4211"
       y1="259.36871"
       x2="194.8503"
       y2="259.36871"
       id="linearGradient32006"
       xlink:href="#SVGID_22_"
       gradientUnits="userSpaceOnUse"
       gradientTransform="matrix(1,0,0,-1,8.3999,368.2998)" />
  </defs>
  <metadata
     id="metadata7">
    <rdf:RDF>
      <cc:Work
         rdf:about="">
        <dc:format>image/svg+xml</dc:format>
        <dc:type
           rdf:resource="http://purl.org/dc/dcmitype/StillImage" />
        <dc:title></dc:title>
      </cc:Work>
    </rdf:RDF>
  </metadata>
  <path
     inkscape:connector-curvature="0"
     id="path3393"
     d="m 8.5334125,0.00143 c -0.57092,-0.0116 -1.18781,0.0529 -1.83529,0.19006 -0.69948,0.14784 -1.46284,0.3835 -2.27052,0.70906 -0.007,0.003 -0.0288,0.0147 -0.0362,0.0438 l -0.10881,0.35088 -1.93685,6.56436 c -0.002,0.007 -0.007,0.0134 -0.007,0.0219 0,0.0319 0.0129,0.0693 0.029,0.0804 0.003,0.003 0.0119,0.005 0.0145,0.007 l 0.007,0.007 0.12332,0.095 c 0.004,0.003 0.0119,0.005 0.0145,0.007 0.0246,0.01 0.0299,0.008 0.0362,0.007 l 0.007,0 c 0.0177,-10e-4 0.0578,-0.0215 0.058,-0.0219 1.77049,-0.68502 3.18428,-0.9338 4.45401,-0.78217 0.54148,0.0647 1.06676,0.20919 1.60315,0.43129 0.42708,0.17727 0.86706,0.41034 1.3855305,0.73099 l 0.007,0 0.007,0 0.007,0 0,0.007 c 2.2e-4,0 0.0387,0.016 0.0725,0.007 0,-4.3e-4 0.13058,-0.0512 0.13058,-0.0512 l 0.007,-0.007 c 0.017,-0.0123 0.0432,-0.0332 0.0508,-0.0657 l 1.27672,-4.30558 0.68914,-2.31726 0.0435,-0.15351 c 0,-2.2e-4 0.0362,-0.10965 0.0362,-0.10965 6.5e-4,-0.003 -6.5e-4,-0.0104 0,-0.0147 0,-0.003 0,-0.004 0,-0.007 0,-0.0259 -0.01,-0.0531 -0.029,-0.0658 -0.40606,-0.26847 -0.72816,-0.45611 -1.04459,-0.62134 l -0.0218,-0.0147 C 10.388883,0.2485 9.5062525,0.02008 8.5319425,0 z m 4.8022005,2.06872 c -0.023,0.002 -0.0403,0.0163 -0.0725,0.0366 l 0,-0.007 c -4.4e-4,0 -0.0362,0.0292 -0.0362,0.0292 -0.0695,0.0506 -0.11181,0.0902 -0.12332,0.11696 0,6.5e-4 -0.007,0.0219 -0.007,0.0219 0,0.001 -2.02389,6.84214 -2.02389,6.84214 -0.005,0.0163 -0.0145,0.0376 -0.0145,0.0512 0,0.0749 0.071,0.10943 0.0725,0.10965 0.16065,0.10525 0.32665,0.20605 0.49328,0.29971 0.77781,0.47296 1.54662,0.78412 2.35032,0.95761 0.46536,0.10123 0.95431,0.15613 1.44357,0.16082 0.52887,0.005 1.0778,-0.0467 1.63942,-0.15352 0.83358,-0.12888 1.68116,-0.38343 2.51717,-0.75292 0.016,-0.007 0.0551,-0.0252 0.0725,-0.0585 0,-10e-4 2.06016,-6.90792 2.06016,-6.90792 0.004,-0.0123 0.007,-0.0252 0.007,-0.0366 0,-0.0593 -0.0516,-0.11047 -0.10155,-0.1535 -0.0277,-0.0259 -0.068,-0.0546 -0.0943,-0.0658 -0.056,-0.0259 -0.11332,-0.0173 -0.13058,-0.007 -0.50475,0.20314 -0.99537,0.37059 -1.45807,0.50438 -0.44257,0.12755 -0.87637,0.22773 -1.28398,0.2924 -0.38813,0.0615 -0.76369,0.0972 -1.12438,0.10234 -0.34033,0.005 -0.67998,-0.0203 -1.00106,-0.0658 -0.57623,-0.0816 -1.12598,-0.23824 -1.68295,-0.48977 -0.55365,-0.24953 -1.05093,-0.56059 -1.4218,-0.8041 -0.0319,-0.014 -0.0568,-0.0239 -0.0798,-0.0219 z M 5.9364525,8.37866 c -0.35915,0.009 -0.74307,0.0448 -1.13164,0.10965 -0.40739,0.068 -0.84008,0.16948 -1.28398,0.29971 -0.46293,0.13535 -0.95133,0.30654 -1.45807,0.5117 l -0.007,0 c -0.0172,0.008 -0.0233,0.0254 -0.0291,0.0438 l -2.02388997,6.89331 c -0.0111,0.0366 0.0132,0.0677 0.0362,0.0877 l 0.13057,0.10234 c 0,0 0.005,0.005 0.007,0.007 0.0325,0.0217 0.0668,0.0166 0.0798,0.0146 0.75612997,-0.28655 1.42971997,-0.49175 2.06015997,-0.62866 0.61451,-0.13291 1.17346,-0.19251 1.69746,-0.19006 0.43858,0.003 0.84536,0.0495 1.25496,0.13889 0.36998,0.0818 0.73307,0.19211 1.10262,0.35088 0.51825,0.22723 0.99344,0.51532 1.34926,0.7383 0,0 2.1e-4,0.007 0,0.007 0.0111,0.005 0.0482,0.0143 0.0798,0 0,0 0.0893,-0.0499 0.11606,-0.0658 l 0.007,-0.007 c 0.0181,-0.0125 0.0432,-0.0268 0.0508,-0.0585 l 0,-0.007 c 0.004,-0.0132 2.00938,-6.71055 2.00938,-6.71055 l 0.072501,-0.22661 c 10e-4,-0.005 0,-0.0159 0,-0.0219 0,-0.0265 -0.01,-0.0449 -0.029,-0.0585 -6.5e-4,0 -0.007,0 -0.007,0 l 0,-0.007 C 9.1653025,9.13646 8.2040325,8.5957 6.9301125,8.43003 c -0.31954,-0.0421 -0.65392,-0.0594 -0.99381,-0.0512 z m 5.0125705,2.03948 c -0.0235,6.5e-4 -0.0433,0.0147 -0.0798,0.0366 -0.009,0.006 -0.0315,0.0238 -0.058,0.0438 -0.054,0.0415 -0.0921,0.0721 -0.10156,0.095 -2.2e-4,10e-4 0,0.007 0,0.007 l -2.0238905,6.82752 c -0.035,0.10235 0.0619,0.1621 0.0725,0.16813 0.51825,0.33916 1.01052,0.60224 1.5088505,0.8114 0.2921,0.12354 0.59463,0.23071 0.89226,0.31433 0.32263,0.0914 0.65419,0.15785 0.98655,0.20468 0.35627,0.0497 0.71924,0.074 1.08811,0.0731 0.3919,-0.002 0.79614,-0.0284 1.20418,-0.0877 0.43129,-0.0626 0.87785,-0.15731 1.3275,-0.28509 0.47267,-0.13379 0.96417,-0.3061 1.45807,-0.5117 6.5e-4,0 0.007,-0.007 0.007,-0.007 0.0137,-0.009 0.0412,-0.0255 0.058,-0.0585 0,-6.5e-4 1.97246,-6.71586 1.97311,-6.71786 0,-4.4e-4 0,-0.007 0,-0.007 0.003,-0.01 0.007,-0.0201 0.007,-0.0292 0,-0.0553 -0.0358,-0.0871 -0.0362,-0.0877 0,6.5e-4 -0.16684,-0.12427 -0.16684,-0.12427 l 0,-0.007 c -0.0109,-0.0116 -0.0382,-0.0246 -0.10881,-0.0146 -0.50607,0.16747 -0.99824,0.30077 -1.45807,0.40936 -0.44301,0.10391 -0.87199,0.18464 -1.27672,0.23392 -0.76343,0.0948 -1.45395,0.0948 -2.11094,0 -0.57822,-0.0823 -1.12187,-0.2361 -1.66844,-0.47515 -0.44146,-0.19288 -0.89736,-0.44451 -1.42181,-0.78947 -0.0319,-0.0145 -0.0529,-0.0219 -0.0725,-0.0219 z"
     style="fill:#ffffff;stroke:none" />
</svg>
